<svg width="58" height="58" viewBox="0 0 58 58" fill="none" xmlns="http://www.w3.org/2000/svg">
<circle cx="29" cy="29" r="27.5" stroke="black" stroke-width="3"/>
<path d="M27.5859 12.3127C28.3645 11.5306 29.6277 11.5305 30.4062 12.3127L30.7607 12.6692L30.7686 12.6604L42.8828 24.8342C43.6627 25.618 43.6626 26.8922 42.8828 27.676C42.1042 28.4585 40.8401 28.4585 40.0615 27.676L31.8477 19.4299L30.9932 18.5725V43.801C30.9929 44.9131 30.1007 45.8069 29 45.8069C27.8993 45.8069 27.0061 44.9131 27.0059 43.801V18.5627L26.1514 19.4231L17.9385 27.6838C17.1599 28.4663 15.8958 28.4663 15.1172 27.6838C14.3374 26.9 14.3373 25.6258 15.1172 24.842L27.5859 12.3127Z" fill="black" stroke="black"/>
</svg>
